<svg aria-hidden="true" style="position: absolute; width: 0; height: 0; overflow: hidden;" version="1.1" xmlns="http://www.w3.org/2000/svg" xmlns:xlink="http://www.w3.org/1999/xlink">
<defs>
<symbol id="arrow" viewBox="0 0 32 32">
<path fill="#fff" style="fill: var(--color1, #fff)" d="M0 14v4h24l-11 11 2.84 2.84 15.84-15.84-15.84-15.84-2.84 2.84 11 11h-24z"></path>
</symbol>
<symbol id="arrow-down" viewBox="0 0 52 32">
<path fill="#eee" style="fill: var(--color2, #eee)" d="M47.68 1.808l4.24 4.244-23.108 23.116c-0.37 0.373-0.811 0.668-1.296 0.87s-1.005 0.306-1.53 0.306c-0.525 0-1.045-0.104-1.53-0.306s-0.925-0.497-1.296-0.87l-23.12-23.116 4.24-4.24 21.7 21.696 21.7-21.7z"></path>
</symbol>
<symbol id="icon-car" viewBox="0 0 24 32">
<path fill="#727272" style="fill: var(--color3, #727272)" d="M8 0c-2.267 0-4 1.733-4 4s1.733 4 4 4c1.733 0 3.2-1.067 3.733-2.667h2.933v2.667h2.667v-2.667h2.667v-2.667h-8.267c-0.533-1.6-2-2.667-3.733-2.667zM8 2.667c0.8 0 1.333 0.533 1.333 1.333s-0.533 1.333-1.333 1.333c-0.8 0-1.333-0.533-1.333-1.333s0.533-1.333 1.333-1.333zM4.667 10.667c-0.933 0-1.6 0.533-1.867 1.333l-2.8 8v10.667c0 0.8 0.533 1.333 1.333 1.333h1.333c0.8 0 1.333-0.533 1.333-1.333v-1.333h16v1.333c0 0.8 0.533 1.333 1.333 1.333h1.333c0.8 0 1.333-0.533 1.333-1.333v-10.667l-2.8-8c-0.267-0.8-1.067-1.333-1.867-1.333h-14.667zM4.667 12.667h14.667l2 6h-18.667l2-6zM4.667 21.333c1.067 0 2 0.933 2 2s-0.933 2-2 2c-1.067 0-2-0.933-2-2s0.933-2 2-2zM19.333 21.333c1.067 0 2 0.933 2 2s-0.933 2-2 2c-1.067 0-2-0.933-2-2s0.933-2 2-2z"></path>
</symbol>
<symbol id="icon-clock" viewBox="0 0 32 32">
<path fill="#727272" style="fill: var(--color3, #727272)" d="M16 28.8c7.040 0 12.8-5.76 12.8-12.8s-5.76-12.8-12.8-12.8c-7.040 0-12.8 5.76-12.8 12.8s5.76 12.8 12.8 12.8zM16 0c8.8 0 16 7.2 16 16s-7.2 16-16 16c-8.8 0-16-7.2-16-16s7.2-16 16-16zM21.28 22.72l-2.080 1.28-4.8-8.32v-7.68h2.4v7.040l4.48 7.68z"></path>
</symbol>
<symbol id="icon-money" viewBox="0 0 44 32">
<path fill="#727272" style="fill: var(--color3, #727272)" d="M26 18c-1.667 0-3.083-0.583-4.25-1.75s-1.75-2.583-1.75-4.25c0-1.667 0.583-3.083 1.75-4.25s2.583-1.75 4.25-1.75c1.667 0 3.083 0.583 4.25 1.75s1.75 2.583 1.75 4.25c0 1.667-0.583 3.083-1.75 4.25s-2.583 1.75-4.25 1.75zM12 24c-1.1 0-2.041-0.391-2.824-1.174s-1.175-1.725-1.176-2.826v-16c0-1.1 0.392-2.041 1.176-2.824s1.725-1.175 2.824-1.176h28c1.1 0 2.042 0.392 2.826 1.176s1.175 1.725 1.174 2.824v16c0 1.1-0.391 2.042-1.174 2.826s-1.725 1.175-2.826 1.174h-28zM16 20h20c0-1.1 0.392-2.041 1.176-2.824s1.725-1.175 2.824-1.176v-8c-1.1 0-2.041-0.391-2.824-1.174s-1.175-1.725-1.176-2.826h-20c0 1.1-0.391 2.042-1.174 2.826s-1.725 1.175-2.826 1.174v8c1.1 0 2.042 0.392 2.826 1.176s1.175 1.725 1.174 2.824zM38 32h-34c-1.1 0-2.041-0.391-2.824-1.174s-1.175-1.725-1.176-2.826v-22h4v22h34v4z"></path>
</symbol>
<symbol id="icon-phone" viewBox="0 0 32 32">
<path fill="#fff" style="fill: var(--color1, #fff)" d="M6.436 13.849c2.56 5.031 6.684 9.155 11.716 11.715l3.911-3.911c0.498-0.498 1.191-0.64 1.813-0.444 1.991 0.658 4.124 1.013 6.347 1.013 0.471 0 0.924 0.187 1.257 0.521s0.521 0.786 0.521 1.257v6.222c0 0.471-0.187 0.924-0.521 1.257s-0.786 0.521-1.257 0.521c-8.015 0-15.703-3.184-21.37-8.852s-8.852-13.355-8.852-21.37c0-0.472 0.187-0.924 0.521-1.257s0.786-0.521 1.257-0.521h6.222c0.471 0 0.924 0.187 1.257 0.521s0.521 0.786 0.521 1.257c0 2.222 0.356 4.356 1.013 6.347 0.196 0.622 0.053 1.316-0.444 1.813l-3.911 3.911z"></path>
</symbol>
<symbol id="icon-service" viewBox="0 0 36 32">
<path fill="#727272" style="fill: var(--color3, #727272)" d="M16 32v-3.556h14.222v-12.622c0-3.467-1.207-6.407-3.621-8.821s-5.355-3.622-8.823-3.623c-3.468-0.001-6.408 1.207-8.821 3.623s-3.621 5.357-3.623 8.821v10.844h-1.778c-0.978 0-1.815-0.348-2.51-1.044s-1.044-1.533-1.045-2.512v-3.556c0-0.622 0.156-1.207 0.468-1.755s0.748-0.985 1.31-1.312l0.133-2.356c0.237-2.015 0.823-3.882 1.756-5.6s2.104-3.215 3.511-4.489c1.407-1.274 3.021-2.267 4.843-2.978s3.74-1.067 5.756-1.067c2.016 0 3.927 0.356 5.733 1.067s3.421 1.697 4.844 2.956c1.423 1.26 2.594 2.748 3.511 4.466s1.51 3.584 1.778 5.6l0.133 2.311c0.563 0.267 1 0.667 1.312 1.2s0.467 1.096 0.466 1.689v4.089c0 0.593-0.155 1.156-0.466 1.689s-0.748 0.933-1.312 1.2v2.178c0 0.978-0.348 1.815-1.044 2.512s-1.533 1.045-2.512 1.044h-14.222zM12.444 19.556c-0.504 0-0.926-0.171-1.266-0.512s-0.511-0.763-0.512-1.266c-0.001-0.503 0.169-0.924 0.512-1.266s0.764-0.512 1.266-0.512c0.501 0 0.924 0.171 1.268 0.512s0.514 0.763 0.51 1.266c-0.004 0.503-0.174 0.925-0.512 1.268s-0.76 0.513-1.266 0.51zM23.111 19.556c-0.504 0-0.926-0.171-1.266-0.512s-0.511-0.763-0.512-1.266c-0.001-0.503 0.169-0.924 0.512-1.266s0.764-0.512 1.266-0.512c0.501 0 0.924 0.171 1.268 0.512s0.514 0.763 0.51 1.266c-0.004 0.503-0.174 0.925-0.512 1.268s-0.76 0.513-1.266 0.51zM7.156 16.8c-0.207-3.141 0.741-5.837 2.844-8.089s4.726-3.378 7.867-3.378c2.637 0 4.956 0.837 6.956 2.51s3.208 3.815 3.621 6.425c-2.696-0.031-5.178-0.757-7.444-2.18s-4.007-3.348-5.223-5.778c-0.474 2.37-1.474 4.482-2.999 6.334s-3.4 3.237-5.623 4.155z"></path>
</symbol>
<symbol id="icon-shield" viewBox="0 0 26 32">
<path fill="#727272" style="fill: var(--color3, #727272)" d="M12.8 32c-3.707-0.933-6.767-3.060-9.181-6.381s-3.62-7.007-3.619-11.059v-9.76l12.8-4.8 12.8 4.8v9.76c0 4.053-1.206 7.74-3.619 11.061s-5.473 5.447-9.181 6.379zM12.8 28.64c2.587-0.8 4.747-2.38 6.48-4.741s2.747-4.994 3.040-7.899h-9.52v-12.6l-9.6 3.6v8.28c0 0.187 0.027 0.427 0.080 0.72h9.52v12.64z"></path>
</symbol>
</defs>
</svg>
